# xmcd
#
# Track frame offsets: 
#        150
#        15850
#        28502
#        44317
#        60502
#        73630
#        85012
#        107077
#        121715
#        136237
#        148362
#        171770
#        184005
#        200292
#
# Disc length: 2864 seconds
#
# Revision: 8
# Processed by: cddbd v1.5.2PL0 Copyright (c) Steve Scherf et al.
# Submitted via: ExactAudioCopyFreeDBPlugin 1.0
#
DISCID=b30b2e0e
DTITLE=Franklin, Aretha - JB-029 Aretha Sings The Blues
DYEAR=1967
DGENRE=Blues
TTITLE0=Drinking again
TTITLE1=Today I sing the blues
TTITLE2=What a difference a day made
TTITLE3=Without the one you love
TTITLE4=Trouble in mind
TTITLE5=Muddy water
TTITLE6=Only the lonely
TTITLE7=I wonder (where are you tonight)
TTITLE8=Laughing on the outside (crying on the inside)
TTITLE9=Take a look
TTITLE10=Nobody knows the way I feel this morning
TTITLE11=Evil gal blues
TTITLE12=This bitter earth
TTITLE13=Maybe I'm a fool
EXTD=
EXTT0=
EXTT1=
EXTT2=
EXTT3=
EXTT4=
EXTT5=
EXTT6=
EXTT7=
EXTT8=
EXTT9=
EXTT10=
EXTT11=
EXTT12=
EXTT13=
PLAYORDER=
